<?xml version="1.0" encoding="utf-8"?>
<!-- Generator: Adobe Illustrator 16.0.0, SVG Export Plug-In . SVG Version: 6.00 Build 0)  -->
<!DOCTYPE svg PUBLIC "-//W3C//DTD SVG 1.1//EN" "http://www.w3.org/Graphics/SVG/1.1/DTD/svg11.dtd">
<svg version="1.1" id="レイヤー_1" xmlns="http://www.w3.org/2000/svg" xmlns:xlink="http://www.w3.org/1999/xlink" x="0px"
	 y="0px" width="100px" height="100px" viewBox="0 0 100 100" enable-background="new 0 0 100 100" xml:space="preserve">
<circle fill="#B2B2B2" cx="50" cy="50" r="50"/>
<path d="M59.273,63.095H40.728l-3.679,4.446v1.99h1.226v13.426h23.45V69.531h1.226v-1.99L59.273,63.095z M62.7,69.281H37.299v-1.49
	H62.7V69.281z"/>
<path d="M88.584,28.13v-1.897H11.416v1.897h1.876v28.133h-1.876v1.897h31.528v2.215h14.113V58.16h31.527v-1.897h-1.876V28.13H88.584
	z M88.084,56.763v0.897H57.057h-0.5v0.5v1.715H43.444V58.16v-0.5h-0.5H11.916v-0.897H88.084z M11.916,27.63v-0.897h76.168v0.897
	H11.916z"/>
</svg>
