<?xml version="1.0" encoding="utf-8"?>
<!-- Generator: Adobe Illustrator 16.0.0, SVG Export Plug-In . SVG Version: 6.00 Build 0)  -->
<!DOCTYPE svg PUBLIC "-//W3C//DTD SVG 1.1//EN" "http://www.w3.org/Graphics/SVG/1.1/DTD/svg11.dtd">
<svg version="1.1" id="レイヤー_1" xmlns="http://www.w3.org/2000/svg" xmlns:xlink="http://www.w3.org/1999/xlink" x="0px"
	 y="0px" width="100px" height="100px" viewBox="0 0 100 100" enable-background="new 0 0 100 100" xml:space="preserve">
<circle fill="#B2B2B2" cx="50" cy="50" r="50"/>
<path d="M69.65,22.653H58.452V13.76L44,8.922v4.838h-2.452v8.893h-11.17l-4.462,7.52v4.429v1.36v2.976v46.791h48.168V38.938v-2.589
	v-1.452v-4.723v-0.001L69.65,22.653z M58.452,25.219h2.078v3.453h-2.078V25.219z M44.5,9.617l12.377,4.143H44.5V9.617z
	 M42.048,14.26h15.904v14.412H42.048V14.26z M39.499,25.219h2.049v3.453h-2.049V25.219z M73.584,36.323
	c-2.636-0.211-4.761-2.091-5.418-4.573H31.439c-0.645,2.269-2.603,3.979-5.023,4.187v-1.385c2.041-0.232,3.646-1.837,3.879-3.879
	H69.41c0.235,2.204,1.971,3.938,4.174,4.173V36.323z"/>
</svg>
